<?xml version="1.0" encoding="utf-8"?>
<!-- Generator: Adobe Illustrator 25.0.0, SVG Export Plug-In . SVG Version: 6.00 Build 0)  -->
<svg version="1.1" id="Camada_1" xmlns="http://www.w3.org/2000/svg" xmlns:xlink="http://www.w3.org/1999/xlink" x="0px" y="0px"
	 width="276" viewBox="0 0 946.67 551.79" style="enable-background:new 0 0 946.67 551.79;"
	 xml:space="preserve">
<style type="text/css">
	.st0{clip-path:url(#SVGID_2_);fill:url(#SVGID_3_);}
	.st1{fill-rule:evenodd;clip-rule:evenodd;fill:#7EB61F;}
	.st2{fill-rule:evenodd;clip-rule:evenodd;fill:#5B5B5E;}
	.st3{fill-rule:evenodd;clip-rule:evenodd;fill:#A3A3A3;}
	.st4{fill-rule:evenodd;clip-rule:evenodd;fill:#0090BE;}
	.st5{fill-rule:evenodd;clip-rule:evenodd;fill:#B1C900;}
	.st6{fill-rule:evenodd;clip-rule:evenodd;fill:#98BE12;}
	.st7{fill:none;stroke:#B0AFB5;stroke-width:0.5669;stroke-miterlimit:22.9256;}
</style>
<g>
	<g>
		<defs>
			<path id="SVGID_1_" d="M237.18,268.83c11.41-131.15,13.39-154.87-79.36-83.05C237.81,145.53,228.85,155.41,237.18,268.83
				 M115.42,171.75c109.44-38.82,132.65-47.88,23.46-84.29C199.47,130.95,202.54,125.54,115.42,171.75z M383.37,75.3
				c-117.4,29.19-146.48,40.39-32.22,88.59C289.68,112.13,285.95,117.69,383.37,75.3z M192.18,36.16
				c35.07,59.45,42.18,72.44-21.48,47.37C214.91,86.82,214.25,90.46,192.18,36.16z M352.47,205.09
				c-76.8-73.6-118.18-100.45-78.13,19.27C259.85,146.35,278.84,150.01,352.47,205.09z M281.74,47.8
				c-37.21,70.28-3.72,41.51,68.22,9.29C293.31,66.82,257.16,112.7,281.74,47.8z M278.08,6.44C243.91,98.36,238.96,114,201.9,6.39
				C241.28,70.07,237.96,79.42,278.08,6.44z"/>
		</defs>
		<clipPath id="SVGID_2_">
			<use xlink:href="#SVGID_1_"  style="overflow:visible;"/>
		</clipPath>
		<linearGradient id="SVGID_3_" gradientUnits="userSpaceOnUse" x1="115.4155" y1="137.6111" x2="383.3717" y2="137.6111">
			<stop  offset="0" style="stop-color:#B1C900"/>
			<stop  offset="1" style="stop-color:#0072BA"/>
		</linearGradient>
		<rect x="115.42" y="6.39" class="st0" width="267.96" height="262.44"/>
	</g>
	<path class="st1" d="M150.54,322c0-5.18-1.84-9.61-5.52-13.29c-3.68-3.68-8.11-5.52-13.29-5.52c-5.18,0-9.61,1.84-13.29,5.52
		c-3.68,3.68-5.52,8.11-5.52,13.29v49.7l-18.82-12.09V322c0-10.4,3.66-19.29,11-26.61c7.34-7.34,16.23-11.03,26.63-11.03
		c10.4,0,19.29,3.66,26.65,10.98c0.54,0.58,1.07,1.16,1.56,1.69c0.51-0.53,1.05-1.11,1.63-1.69c7.32-7.32,16.19-10.98,26.61-10.98
		c10.4,0,19.27,3.68,26.61,11.03c7.34,7.32,11,16.21,11,26.61v50.18h-18.82V322c0-5.18-1.82-9.61-5.5-13.29
		c-3.68-3.68-8.11-5.52-13.29-5.52c-5.2,0-9.63,1.84-13.32,5.52c-3.66,3.68-5.5,8.11-5.5,13.29v50.18h-18.82V322z"/>
	<polygon class="st2" points="312.43,288.1 312.43,306.13 282.41,306.13 282.41,372.18 264.38,372.18 264.38,306.13 234.37,306.13 
		234.37,288.1 	"/>
	<path class="st2" d="M384.02,306.13h-40.16v14.99h35.86c-0.44,2.94-0.67,5.96-0.67,9.02c0,3.05,0.23,6.05,0.67,8.98h-35.86v15.05
		h40.17c2.92,6.72,7.03,12.81,12.05,18.01h-70.23V288.1h70.23C391.05,293.3,386.94,299.4,384.02,306.13"/>
	<path class="st3" d="M379.46,536.18c0,0.79,0.08,1.52,0.23,2.2c0.16,0.68,0.4,1.32,0.75,1.94c0.34,0.63,0.83,1.11,1.49,1.46
		c0.65,0.35,1.43,0.52,2.34,0.52c1.32,0,2.44-0.26,3.37-0.78v-10.36c-1.44-0.67-2.71-1-3.81-0.99c-1.32,0-2.38,0.52-3.18,1.58
		C379.86,532.8,379.46,534.28,379.46,536.18 M376.82,536.36c0-1.44,0.23-2.77,0.69-4c0.46-1.23,1.2-2.27,2.24-3.11
		c1.03-0.83,2.28-1.25,3.72-1.25c1.26,0,2.82,0.47,4.68,1.39l0.43-0.93h1.71v17.72c0,1.76-0.52,3.13-1.56,4.12
		c-1.05,0.99-2.61,1.49-4.65,1.49c-2.21,0-4.45-0.6-6.71-1.8l1.37-2.02c1.82,0.98,3.6,1.47,5.35,1.47c2.38,0,3.57-1.07,3.57-3.23
		v-2.75c-1.3,0.69-2.55,1.03-3.75,1.03c-2.26,0-4-0.78-5.22-2.35C377.43,540.57,376.82,538.64,376.82,536.36z M359.83,535.18h8.4
		c-0.15-1.4-0.53-2.56-1.16-3.47c-0.63-0.9-1.54-1.35-2.73-1.35c-1.19,0-2.19,0.44-3.02,1.33
		C360.49,532.57,359.99,533.74,359.83,535.18z M357.09,536.22c0-2.5,0.66-4.49,1.99-5.98c1.32-1.49,3.07-2.23,5.25-2.23
		c4.32,0,6.49,3.06,6.49,9.18h-11.07c0.1,1.29,0.57,2.43,1.41,3.44c0.85,1.01,2.13,1.51,3.85,1.51c1.99,0,3.71-0.33,5.13-0.99v2.44
		c-1.56,0.6-3.16,0.9-4.8,0.91c-1.43,0-2.68-0.22-3.74-0.66c-1.07-0.45-1.92-1.05-2.57-1.83c-0.65-0.78-1.12-1.65-1.44-2.62
		C357.26,538.41,357.09,537.36,357.09,536.22z M334.33,544.02v-21.77h2.8l10.92,17.11v-17.11h2.8v21.77h-2.8l-10.92-17.13v17.13
		H334.33z M302.19,539.26v-10.79h2.64v10.89c0,0.88,0.38,1.56,1.14,2.04c0.76,0.48,1.65,0.72,2.67,0.72c1.03,0,1.92-0.24,2.68-0.72
		c0.76-0.48,1.14-1.16,1.14-2.04v-10.89h2.64v10.79c0,1.62-0.66,2.9-1.99,3.83c-1.33,0.93-2.82,1.39-4.46,1.39
		c-1.65,0-3.14-0.46-4.46-1.38C302.85,542.18,302.19,540.9,302.19,539.26z M285.22,535.18h8.4c-0.14-1.4-0.53-2.56-1.16-3.47
		c-0.63-0.9-1.54-1.35-2.73-1.35c-1.19,0-2.19,0.44-3.02,1.33C285.88,532.57,285.38,533.74,285.22,535.18z M282.49,536.22
		c0-2.5,0.66-4.49,1.99-5.98c1.32-1.49,3.07-2.23,5.25-2.23c4.32,0,6.49,3.06,6.49,9.18h-11.07c0.1,1.29,0.57,2.43,1.41,3.44
		c0.84,1.01,2.13,1.51,3.85,1.51c1.99,0,3.71-0.33,5.13-0.99v2.44c-1.56,0.6-3.16,0.9-4.8,0.91c-1.42,0-2.67-0.22-3.74-0.66
		c-1.07-0.45-1.92-1.05-2.57-1.83c-0.65-0.78-1.12-1.65-1.44-2.62C282.65,538.41,282.49,537.36,282.49,536.22z M264.66,542
		l1.67-1.78c0.39,0.31,0.91,0.64,1.54,0.97c1.21,0.62,2.24,0.93,3.1,0.93c0.77,0,1.52-0.21,2.27-0.64c0.74-0.43,1.12-1.02,1.12-1.79
		c0-0.71-0.36-1.29-1.07-1.74c-0.71-0.45-1.91-0.99-3.6-1.62c-0.71-0.25-1.25-0.46-1.65-0.63c-0.39-0.16-0.85-0.4-1.36-0.73
		c-0.51-0.33-0.9-0.7-1.15-1.14c-0.24-0.44-0.37-0.93-0.37-1.49c0-1.31,0.61-2.36,1.82-3.16c1.21-0.8,2.58-1.2,4.1-1.2
		c1.12,0,2.34,0.28,3.63,0.82c0.54,0.23,1.05,0.5,1.52,0.8l-1.62,1.9c-0.33-0.2-0.69-0.39-1.09-0.56c-0.91-0.4-1.72-0.59-2.45-0.59
		c-0.84,0-1.6,0.19-2.27,0.56c-0.67,0.38-1.01,0.85-1.01,1.43c0,0.18,0.08,0.36,0.25,0.54c0.17,0.18,0.43,0.35,0.79,0.51
		c0.36,0.17,0.67,0.31,0.93,0.41c0.25,0.1,0.62,0.24,1.09,0.41c1.16,0.43,2.02,0.78,2.59,1.04c0.58,0.26,1.18,0.61,1.83,1.04
		c0.64,0.44,1.09,0.92,1.34,1.46c0.25,0.54,0.38,1.19,0.38,1.93c0,1.05-0.36,1.96-1.07,2.72c-0.72,0.76-1.51,1.3-2.39,1.61
		c-0.88,0.32-1.73,0.47-2.57,0.47c-1.27,0-2.71-0.41-4.32-1.25C265.95,542.87,265.28,542.45,264.66,542z M449.13,506.67v-15.55h1.91
		l0.39,1.09c1.33-1.01,2.51-1.52,3.55-1.53c1.12,0,2.16,0.25,3.11,0.74l-1.02,2.1c-0.89-0.32-1.71-0.47-2.46-0.47
		c-1.03,0-1.98,0.38-2.84,1.16v12.47H449.13z M432.37,501.8c0,0.82,0.21,1.56,0.64,2.21c0.43,0.65,1.12,0.98,2.1,0.98
		c0.69,0,1.46-0.15,2.32-0.46c0.85-0.3,1.57-0.65,2.15-1.06h0.03v-4.52h-4.15C433.4,498.96,432.37,499.91,432.37,501.8z
		 M429.72,501.8c0-1.37,0.5-2.52,1.51-3.45c1.01-0.92,2.43-1.38,4.26-1.38h4.12v-1.22c0-0.98-0.19-1.68-0.56-2.1
		c-0.37-0.42-1.06-0.63-2.07-0.63c-0.75,0-1.88,0.06-3.4,0.18l-2.1,0.25l0.01-2.33c1.12-0.08,1.95-0.16,2.49-0.22
		c1.82-0.16,3.17-0.24,4.05-0.25c1.45,0,2.52,0.42,3.2,1.24c0.68,0.83,1.02,1.79,1.02,2.87v11.9h-1.96l-0.42-1.44h-0.09
		c-1.8,1.18-3.53,1.76-5.18,1.75c-1.58,0-2.78-0.53-3.63-1.59C430.14,504.33,429.72,503.14,429.72,501.8z M404.34,506.67v-15.55
		h1.91l0.33,0.88c1.16-0.9,2.42-1.35,3.76-1.35c0.78,0,1.58,0.14,2.37,0.42c0.79,0.28,1.42,0.68,1.87,1.18
		c1.2-1.06,2.56-1.59,4.06-1.6c1.22,0,2.34,0.31,3.38,0.92c1.03,0.61,1.55,1.45,1.55,2.51v12.59h-2.64v-11.38
		c0-1.52-0.9-2.28-2.69-2.27c-1.12,0-2.1,0.35-2.94,1.04v12.62h-2.64v-11.38c0-1.52-0.9-2.28-2.69-2.27c-1.16,0-2.15,0.36-2.97,1.07
		v12.59H404.34z M389.89,506.67v-15.55h1.91l0.39,1.09c1.33-1.01,2.51-1.52,3.55-1.53c1.12,0,2.16,0.25,3.11,0.74l-1.02,2.1
		c-0.89-0.32-1.71-0.47-2.46-0.47c-1.03,0-1.98,0.38-2.84,1.16v12.47H389.89z M371.86,494.71c-1.03,1.13-1.55,2.52-1.55,4.18
		c0,1.66,0.52,3.05,1.55,4.18c1.04,1.13,2.41,1.7,4.13,1.7c1.69,0,3.06-0.57,4.11-1.7c1.04-1.13,1.57-2.53,1.57-4.18
		c0-1.66-0.52-3.05-1.57-4.18c-1.05-1.13-2.42-1.7-4.11-1.7C374.27,493.02,372.9,493.58,371.86,494.71z M370,504.76
		c-1.55-1.59-2.33-3.55-2.33-5.86c0-2.32,0.78-4.27,2.33-5.86c1.55-1.58,3.55-2.38,5.99-2.38c2.41,0,4.4,0.8,5.97,2.4
		c1.57,1.6,2.35,3.55,2.35,5.85c0,2.3-0.78,4.25-2.35,5.85c-1.56,1.6-3.56,2.39-5.97,2.39C373.54,507.14,371.55,506.34,370,504.76z
		 M353.07,493.48v-2.36h2.4v-3.69c0-1.22,0.37-2.2,1.12-2.94c0.75-0.74,1.67-1.11,2.76-1.11h3.83v2.36h-2.43
		c-1.07,0-1.78,0.22-2.13,0.65c-0.35,0.43-0.52,1.24-0.52,2.42v2.31h4.11v2.36h-4.11v13.19h-2.64v-13.19H353.07z M335.22,504.65
		l1.67-1.78c0.39,0.31,0.91,0.64,1.54,0.97c1.21,0.62,2.24,0.93,3.11,0.93c0.77,0,1.52-0.21,2.27-0.64c0.74-0.43,1.11-1.02,1.11-1.8
		c0-0.71-0.36-1.28-1.07-1.74c-0.71-0.45-1.91-0.99-3.6-1.62c-0.7-0.25-1.25-0.46-1.65-0.63c-0.39-0.16-0.85-0.4-1.36-0.73
		c-0.51-0.33-0.9-0.7-1.15-1.14c-0.24-0.44-0.37-0.93-0.37-1.49c0-1.31,0.61-2.36,1.82-3.16c1.21-0.8,2.58-1.2,4.1-1.2
		c1.12,0,2.34,0.28,3.63,0.82c0.54,0.23,1.05,0.5,1.52,0.8l-1.62,1.9c-0.33-0.2-0.69-0.4-1.09-0.57c-0.91-0.39-1.72-0.59-2.45-0.59
		c-0.84,0-1.6,0.19-2.27,0.56c-0.67,0.38-1.01,0.85-1.01,1.43c0,0.18,0.08,0.36,0.25,0.54c0.16,0.18,0.43,0.35,0.79,0.51
		c0.36,0.17,0.67,0.31,0.93,0.41c0.25,0.1,0.62,0.24,1.09,0.41c1.16,0.44,2.02,0.78,2.59,1.04c0.58,0.26,1.18,0.61,1.83,1.04
		c0.64,0.44,1.09,0.92,1.34,1.46c0.25,0.54,0.38,1.19,0.38,1.92c0,1.05-0.36,1.96-1.07,2.72c-0.72,0.76-1.51,1.3-2.39,1.61
		c-0.88,0.32-1.73,0.47-2.57,0.47c-1.27,0-2.71-0.41-4.32-1.25C336.5,505.52,335.83,505.11,335.22,504.65z M315.76,506.67v-15.55
		h1.91l0.42,1.16c1.7-1.09,3.37-1.63,5.03-1.63c1.71,0,3.1,0.41,4.16,1.23c1.06,0.82,1.6,2.07,1.6,3.75v11.04h-2.64V495.6
		c0-1.73-1.04-2.59-3.12-2.59c-1.62,0-3.19,0.54-4.72,1.61v12.04H315.76z M299,501.8c0,0.82,0.21,1.56,0.64,2.21
		c0.43,0.65,1.12,0.98,2.1,0.98c0.69,0,1.46-0.15,2.32-0.46c0.86-0.3,1.57-0.65,2.15-1.06h0.03v-4.52h-4.15
		C300.03,498.96,299,499.91,299,501.8z M296.35,501.8c0-1.37,0.5-2.52,1.51-3.45c1.01-0.92,2.43-1.38,4.26-1.38h4.12v-1.22
		c0-0.98-0.19-1.68-0.56-2.1c-0.37-0.42-1.06-0.63-2.07-0.63c-0.75,0-1.88,0.06-3.4,0.18l-2.1,0.25l0.01-2.33
		c1.13-0.08,1.96-0.16,2.49-0.22c1.82-0.16,3.17-0.24,4.05-0.25c1.45,0,2.52,0.42,3.2,1.24c0.68,0.83,1.02,1.79,1.02,2.87v11.9
		h-1.96l-0.42-1.44h-0.09c-1.8,1.18-3.53,1.76-5.18,1.75c-1.58,0-2.79-0.53-3.63-1.59C296.77,504.33,296.35,503.14,296.35,501.8z
		 M283.54,506.67v-15.55h1.91l0.39,1.09c1.33-1.01,2.51-1.52,3.54-1.53c1.12,0,2.16,0.25,3.12,0.74l-1.02,2.1
		c-0.89-0.32-1.71-0.47-2.46-0.47c-1.03,0-1.98,0.38-2.84,1.16v12.47H283.54z M263.25,486.89v-1.99h15.83v1.99h-6.5v19.78h-2.8
		v-19.78H263.25z M406.88,464.45c0,0.82,0.21,1.56,0.64,2.21c0.43,0.65,1.12,0.98,2.11,0.98c0.69,0,1.46-0.15,2.32-0.46
		c0.85-0.3,1.57-0.65,2.15-1.06h0.03v-4.52h-4.15C407.91,461.61,406.88,462.56,406.88,464.45z M404.23,464.45
		c0-1.37,0.5-2.53,1.51-3.45c1.01-0.92,2.43-1.38,4.26-1.38h4.12v-1.22c0-0.98-0.19-1.68-0.56-2.1c-0.37-0.42-1.06-0.63-2.07-0.63
		c-0.75,0-1.88,0.06-3.4,0.18l-2.1,0.25l0.01-2.33c1.12-0.08,1.96-0.16,2.49-0.22c1.82-0.16,3.17-0.24,4.05-0.25
		c1.45,0,2.52,0.41,3.2,1.24c0.68,0.83,1.02,1.79,1.02,2.87v11.9h-1.96l-0.42-1.44h-0.09c-1.8,1.18-3.53,1.76-5.18,1.75
		c-1.58,0-2.78-0.53-3.62-1.59C404.65,466.99,404.23,465.79,404.23,464.45z M384.82,469.33v-15.55h1.91l0.42,1.16
		c1.69-1.09,3.37-1.63,5.03-1.63c1.71,0,3.1,0.41,4.16,1.23c1.06,0.82,1.6,2.07,1.6,3.75v11.04h-2.64v-11.07
		c0-1.73-1.04-2.59-3.11-2.59c-1.62,0-3.19,0.54-4.72,1.61v12.04H384.82z M368.05,464.45c0,0.82,0.21,1.56,0.64,2.21
		c0.43,0.65,1.12,0.98,2.11,0.98c0.69,0,1.46-0.15,2.32-0.46c0.85-0.3,1.57-0.65,2.15-1.06h0.03v-4.52h-4.15
		C369.08,461.61,368.05,462.56,368.05,464.45z M365.41,464.45c0-1.37,0.5-2.53,1.51-3.45c1.01-0.92,2.43-1.38,4.26-1.38h4.12v-1.22
		c0-0.98-0.19-1.68-0.56-2.1c-0.37-0.42-1.06-0.63-2.07-0.63c-0.75,0-1.88,0.06-3.4,0.18l-2.1,0.25l0.01-2.33
		c1.12-0.08,1.96-0.16,2.49-0.22c1.82-0.16,3.17-0.24,4.05-0.25c1.45,0,2.52,0.41,3.2,1.24c0.68,0.83,1.02,1.79,1.02,2.87v11.9
		h-1.96l-0.42-1.44h-0.09c-1.8,1.18-3.53,1.76-5.18,1.75c-1.58,0-2.78-0.53-3.62-1.59C365.83,466.99,365.41,465.79,365.41,464.45z
		 M340.03,469.33v-15.55h1.91l0.33,0.88c1.16-0.9,2.42-1.35,3.76-1.35c0.78,0,1.58,0.14,2.37,0.42c0.79,0.28,1.41,0.68,1.87,1.18
		c1.2-1.06,2.55-1.59,4.06-1.6c1.22,0,2.34,0.31,3.38,0.92c1.03,0.61,1.55,1.45,1.55,2.51v12.59h-2.64v-11.39
		c0-1.52-0.9-2.28-2.69-2.27c-1.12,0-2.1,0.35-2.94,1.04v12.62h-2.64v-11.39c0-1.52-0.9-2.28-2.69-2.27c-1.16,0-2.15,0.36-2.98,1.07
		v12.59H340.03z M320.37,464.57v-10.79h2.64v10.89c0,0.88,0.38,1.56,1.14,2.04c0.76,0.48,1.65,0.72,2.67,0.72
		c1.03,0,1.92-0.24,2.68-0.72c0.76-0.48,1.14-1.16,1.14-2.04v-10.89h2.64v10.79c0,1.62-0.66,2.9-1.99,3.83
		c-1.33,0.93-2.82,1.4-4.46,1.4c-1.65,0-3.14-0.46-4.46-1.39C321.03,467.49,320.37,466.21,320.37,464.57z M297.13,469.33v-21.77h2.8
		v9.86h10.89v-9.86h2.8v21.77h-2.8v-9.92h-10.89v9.92H297.13z M267.36,460.49h8.4c-0.14-1.4-0.53-2.56-1.16-3.47
		c-0.63-0.9-1.54-1.35-2.73-1.35c-1.19,0-2.19,0.44-3.02,1.33C268.02,457.88,267.52,459.05,267.36,460.49z M264.62,461.52
		c0-2.5,0.66-4.49,1.99-5.98c1.32-1.49,3.07-2.23,5.25-2.23c4.32,0,6.49,3.06,6.49,9.18h-11.07c0.1,1.29,0.57,2.43,1.41,3.44
		c0.84,1.01,2.13,1.51,3.85,1.51c1.99,0,3.71-0.33,5.13-0.99v2.44c-1.56,0.6-3.16,0.9-4.8,0.91c-1.42,0-2.68-0.22-3.74-0.66
		c-1.07-0.45-1.92-1.05-2.57-1.83c-0.65-0.78-1.12-1.65-1.44-2.62C264.78,463.72,264.62,462.66,264.62,461.52z M489.87,464.45
		c0,0.82,0.21,1.56,0.64,2.21c0.42,0.65,1.12,0.98,2.1,0.98c0.69,0,1.46-0.15,2.32-0.46c0.86-0.3,1.57-0.65,2.15-1.06h0.03v-4.52
		h-4.15C490.9,461.61,489.87,462.56,489.87,464.45z M487.23,464.45c0-1.37,0.5-2.53,1.51-3.45c1.01-0.92,2.43-1.38,4.26-1.38h4.12
		v-1.22c0-0.98-0.19-1.68-0.56-2.1c-0.37-0.42-1.06-0.63-2.07-0.63c-0.75,0-1.88,0.06-3.4,0.18l-2.1,0.25l0.01-2.33
		c1.13-0.08,1.95-0.16,2.49-0.22c1.82-0.16,3.17-0.24,4.05-0.25c1.45,0,2.52,0.41,3.2,1.24c0.68,0.83,1.02,1.79,1.02,2.87v11.9
		h-1.96l-0.42-1.44h-0.09c-1.8,1.18-3.53,1.76-5.18,1.75c-1.58,0-2.79-0.53-3.63-1.59C487.65,466.99,487.23,465.79,487.23,464.45z
		 M474.42,469.33v-15.55h1.91l0.39,1.09c1.33-1.01,2.51-1.52,3.54-1.53c1.12,0,2.16,0.25,3.12,0.74l-1.02,2.1
		c-0.89-0.32-1.71-0.47-2.46-0.47c-1.03,0-1.98,0.38-2.84,1.16v12.47H474.42z M457.65,464.45c0,0.82,0.21,1.56,0.64,2.21
		c0.43,0.65,1.12,0.98,2.1,0.98c0.69,0,1.46-0.15,2.32-0.46c0.86-0.3,1.57-0.65,2.15-1.06h0.03v-4.52h-4.15
		C458.69,461.61,457.65,462.56,457.65,464.45z M455.01,464.45c0-1.37,0.5-2.53,1.51-3.45c1.01-0.92,2.43-1.38,4.26-1.38h4.12v-1.22
		c0-0.98-0.19-1.68-0.56-2.1c-0.37-0.42-1.06-0.63-2.07-0.63c-0.75,0-1.88,0.06-3.4,0.18l-2.1,0.25l0.01-2.33
		c1.12-0.08,1.95-0.16,2.49-0.22c1.82-0.16,3.17-0.24,4.05-0.25c1.45,0,2.52,0.41,3.2,1.24c0.68,0.83,1.02,1.79,1.02,2.87v11.9
		h-1.96l-0.42-1.44h-0.09c-1.8,1.18-3.53,1.76-5.18,1.75c-1.58,0-2.79-0.53-3.63-1.59C455.43,466.99,455.01,465.79,455.01,464.45z
		 M438.7,466.84c0.99,0.52,2.23,0.78,3.74,0.78c1.18,0,2.14-0.32,2.87-0.96c0.73-0.64,1.22-1.41,1.48-2.3
		c0.25-0.89,0.38-1.93,0.38-3.12c0-1.68-0.4-3.06-1.21-4.13c-0.8-1.07-1.81-1.61-3.01-1.61c-1.24,0-2.65,0.33-4.24,0.99V466.84z
		 M436.05,477.1v-23.33h1.71l0.42,0.89c1.82-0.91,3.47-1.36,4.96-1.36c1.44,0,2.67,0.42,3.72,1.25c1.05,0.83,1.8,1.86,2.25,3.08
		c0.46,1.21,0.69,2.51,0.69,3.88c0,2.37-0.6,4.34-1.81,5.91c-1.21,1.57-2.91,2.36-5.12,2.36c-1.46,0-2.86-0.33-4.18-1v8.31H436.05z
		 M561.6,431.98v-23.33h2.64v23.33H561.6z M544.71,427.11c0,0.82,0.21,1.56,0.64,2.21c0.43,0.65,1.13,0.98,2.11,0.98
		c0.69,0,1.46-0.15,2.32-0.46c0.85-0.3,1.57-0.65,2.15-1.06h0.03v-4.52h-4.15C545.74,424.27,544.71,425.21,544.71,427.11z
		 M542.06,427.11c0-1.37,0.5-2.53,1.51-3.45c1.01-0.92,2.43-1.38,4.26-1.38h4.12v-1.22c0-0.98-0.19-1.68-0.56-2.1
		c-0.37-0.42-1.06-0.63-2.07-0.63c-0.75,0-1.88,0.06-3.4,0.18l-2.1,0.25l0.01-2.33c1.12-0.08,1.95-0.16,2.49-0.22
		c1.82-0.16,3.17-0.24,4.05-0.25c1.45,0,2.52,0.41,3.2,1.24c0.68,0.83,1.02,1.79,1.02,2.87v11.9h-1.96l-0.42-1.44h-0.09
		c-1.8,1.18-3.53,1.76-5.18,1.75c-1.58,0-2.78-0.53-3.62-1.59C542.48,429.64,542.06,428.44,542.06,427.11z M527.68,418.79v-2.36
		h2.61v-4.54h2.64v4.54h3.82v2.36h-3.82v8.64c0,0.78,0.12,1.33,0.35,1.67c0.24,0.34,0.76,0.51,1.57,0.51h1.6v2.36h-2.78
		c-1.01,0-1.83-0.27-2.44-0.81c-0.62-0.53-0.93-1.26-0.93-2.19v-10.19H527.68z M519.52,412.57v-2.36h2.64v2.36H519.52z
		 M519.52,431.98v-15.55h2.64v15.55H519.52z M501.64,424.14c0,0.79,0.08,1.52,0.23,2.2c0.16,0.68,0.4,1.32,0.75,1.94
		c0.34,0.63,0.84,1.11,1.49,1.46c0.65,0.35,1.43,0.52,2.34,0.52c1.32,0,2.44-0.26,3.37-0.78v-10.36c-1.44-0.67-2.71-1-3.81-0.99
		c-1.32,0-2.38,0.52-3.18,1.58C502.04,420.76,501.64,422.24,501.64,424.14z M499,424.32c0-1.44,0.23-2.77,0.69-4
		c0.46-1.23,1.2-2.27,2.24-3.11c1.03-0.83,2.28-1.25,3.72-1.25c1.26,0,2.82,0.47,4.68,1.39l0.43-0.93h1.71v17.72
		c0,1.76-0.52,3.13-1.56,4.12c-1.05,0.99-2.61,1.49-4.65,1.49c-2.21,0-4.45-0.6-6.71-1.8l1.37-2.02c1.82,0.98,3.6,1.46,5.35,1.46
		c2.38,0,3.57-1.07,3.57-3.22v-2.75c-1.3,0.69-2.55,1.03-3.75,1.03c-2.26,0-4-0.78-5.22-2.35C499.61,428.53,499,426.6,499,424.32z
		 M489.49,412.57v-2.36h2.64v2.36H489.49z M489.49,431.98v-15.55h2.64v15.55H489.49z M468,429.99h2.66c1.51,0,2.85-0.2,4.01-0.6
		c1.15-0.4,2.07-0.9,2.75-1.51c0.68-0.61,1.22-1.32,1.65-2.15c0.42-0.83,0.7-1.61,0.85-2.35c0.14-0.74,0.22-1.51,0.22-2.31
		c0-0.79-0.07-1.56-0.22-2.3c-0.15-0.74-0.43-1.52-0.85-2.35c-0.43-0.82-0.97-1.54-1.65-2.15c-0.68-0.61-1.6-1.11-2.76-1.5
		c-1.16-0.39-2.49-0.59-4-0.59H468V429.99z M465.2,431.98v-21.77h6.68c3.28,0,5.95,1.05,7.98,3.15c2.04,2.1,3.06,4.68,3.06,7.73
		c0,3.05-1.02,5.62-3.06,7.73c-2.04,2.11-4.7,3.16-7.98,3.16H465.2z M435.65,427.11c0,0.82,0.21,1.56,0.64,2.21
		c0.43,0.65,1.12,0.98,2.1,0.98c0.69,0,1.46-0.15,2.32-0.46c0.86-0.3,1.57-0.65,2.15-1.06h0.03v-4.52h-4.15
		C436.68,424.27,435.65,425.21,435.65,427.11z M433,427.11c0-1.37,0.5-2.53,1.51-3.45c1.01-0.92,2.43-1.38,4.26-1.38h4.12v-1.22
		c0-0.98-0.19-1.68-0.56-2.1c-0.37-0.42-1.06-0.63-2.07-0.63c-0.75,0-1.88,0.06-3.4,0.18l-2.1,0.25l0.01-2.33
		c1.13-0.08,1.96-0.16,2.49-0.22c1.82-0.16,3.17-0.24,4.05-0.25c1.45,0,2.52,0.41,3.2,1.24c0.68,0.83,1.02,1.79,1.02,2.87v11.9
		h-1.96l-0.42-1.44h-0.09c-1.8,1.18-3.53,1.76-5.18,1.75c-1.58,0-2.79-0.53-3.63-1.59C433.43,429.64,433,428.44,433,427.11z
		 M423.79,412.57v-2.36h2.65v2.36H423.79z M423.79,431.98v-15.55h2.65v15.55H423.79z M407.58,430.04c-1.62-1.61-2.44-3.55-2.44-5.83
		c0-2.28,0.81-4.23,2.44-5.83c1.63-1.61,3.57-2.41,5.83-2.41c1.39,0,2.79,0.16,4.21,0.47v2.36c-1.41-0.31-2.81-0.47-4.21-0.47
		c-1.58,0-2.92,0.58-4,1.72c-1.08,1.15-1.62,2.54-1.62,4.16s0.54,3.01,1.63,4.16c1.09,1.15,2.41,1.72,3.99,1.72
		c1.39,0,2.79-0.16,4.21-0.47v2.36c-1.41,0.31-2.81,0.47-4.21,0.47C411.15,432.45,409.21,431.64,407.58,430.04z M386.17,431.98
		v-15.55h1.91l0.42,1.16c1.7-1.09,3.38-1.63,5.04-1.63c1.71,0,3.1,0.41,4.16,1.23c1.06,0.82,1.6,2.07,1.6,3.75v11.04h-2.64v-11.07
		c0-1.73-1.04-2.59-3.11-2.59c-1.62,0-3.19,0.54-4.72,1.61v12.04H386.17z M369.46,423.15h8.4c-0.14-1.41-0.53-2.56-1.16-3.47
		c-0.63-0.9-1.54-1.35-2.73-1.35c-1.19,0-2.19,0.44-3.02,1.33C370.12,420.53,369.62,421.7,369.46,423.15z M368.73,412.78l3.04-4.13
		h3.79l3.05,4.13h-2.79l-2.16-3.04l-2.14,3.04H368.73z M366.72,424.18c0-2.5,0.66-4.49,1.99-5.98c1.32-1.49,3.07-2.23,5.25-2.23
		c4.32,0,6.49,3.06,6.49,9.18h-11.07c0.1,1.29,0.57,2.43,1.41,3.44c0.84,1,2.13,1.51,3.85,1.51c1.99,0,3.71-0.33,5.13-0.99v2.44
		c-1.56,0.6-3.16,0.9-4.8,0.91c-1.42,0-2.67-0.22-3.74-0.66c-1.07-0.44-1.92-1.05-2.57-1.83c-0.65-0.78-1.12-1.65-1.44-2.62
		C366.88,426.37,366.72,425.32,366.72,424.18z M349.92,424.14c0,0.79,0.08,1.52,0.23,2.2c0.16,0.68,0.4,1.32,0.75,1.94
		c0.34,0.63,0.83,1.11,1.49,1.46c0.65,0.35,1.43,0.52,2.34,0.52c1.32,0,2.44-0.26,3.37-0.78v-10.36c-1.44-0.67-2.71-1-3.81-0.99
		c-1.32,0-2.38,0.52-3.18,1.58C350.32,420.76,349.92,422.24,349.92,424.14z M347.28,424.32c0-1.44,0.23-2.77,0.69-4
		c0.46-1.23,1.2-2.27,2.24-3.11c1.03-0.83,2.28-1.25,3.72-1.25c1.26,0,2.82,0.47,4.68,1.39l0.43-0.93h1.71v17.72
		c0,1.76-0.52,3.13-1.55,4.12c-1.05,0.99-2.61,1.49-4.65,1.49c-2.21,0-4.45-0.6-6.71-1.8l1.37-2.02c1.82,0.98,3.6,1.46,5.35,1.46
		c2.38,0,3.57-1.07,3.57-3.22v-2.75c-1.3,0.69-2.55,1.03-3.75,1.03c-2.26,0-4-0.78-5.22-2.35
		C347.89,428.53,347.28,426.6,347.28,424.32z M337.78,412.57v-2.36h2.64v2.36H337.78z M337.78,431.98v-15.55h2.64v15.55H337.78z
		 M327.76,431.98v-23.33h2.64v23.33H327.76z M310.92,423.15h8.4c-0.14-1.41-0.53-2.56-1.16-3.47c-0.63-0.9-1.54-1.35-2.73-1.35
		c-1.19,0-2.19,0.44-3.02,1.33C311.58,420.53,311.08,421.7,310.92,423.15z M308.18,424.18c0-2.5,0.66-4.49,1.99-5.98
		c1.32-1.49,3.07-2.23,5.25-2.23c4.32,0,6.49,3.06,6.49,9.18h-11.07c0.1,1.29,0.57,2.43,1.41,3.44c0.84,1,2.13,1.51,3.85,1.51
		c1.99,0,3.71-0.33,5.13-0.99v2.44c-1.56,0.6-3.16,0.9-4.8,0.91c-1.42,0-2.68-0.22-3.74-0.66c-1.07-0.44-1.92-1.05-2.57-1.83
		c-0.65-0.78-1.12-1.65-1.44-2.62C308.34,426.37,308.18,425.32,308.18,424.18z M293.8,418.79v-2.36h2.61v-4.54h2.64v4.54h3.83v2.36
		h-3.83v8.64c0,0.78,0.12,1.33,0.35,1.67c0.24,0.34,0.76,0.51,1.57,0.51h1.6v2.36h-2.78c-1.01,0-1.83-0.27-2.44-0.81
		c-0.62-0.53-0.93-1.26-0.93-2.19v-10.19H293.8z M275.48,431.98v-15.55h1.91l0.42,1.16c1.7-1.09,3.37-1.63,5.03-1.63
		c1.71,0,3.1,0.41,4.16,1.23c1.06,0.82,1.6,2.07,1.6,3.75v11.04h-2.64v-11.07c0-1.73-1.04-2.59-3.11-2.59
		c-1.62,0-3.19,0.54-4.72,1.61v12.04H275.48z M265.62,431.98v-21.77h2.8v21.77H265.62z"/>
	<path class="st3" d="M448.44,532.06c-1.03,1.13-1.55,2.52-1.55,4.18c0,1.66,0.52,3.05,1.55,4.18c1.04,1.13,2.41,1.69,4.13,1.69
		c1.69,0,3.06-0.57,4.11-1.69c1.04-1.13,1.57-2.53,1.57-4.18c0-1.66-0.52-3.05-1.57-4.18c-1.05-1.13-2.42-1.7-4.11-1.7
		C450.85,530.36,449.47,530.93,448.44,532.06 M446.57,542.1c-1.55-1.59-2.33-3.54-2.33-5.86c0-2.32,0.78-4.27,2.33-5.86
		c1.55-1.58,3.55-2.38,5.99-2.38c2.41,0,4.4,0.8,5.97,2.4c1.57,1.6,2.35,3.55,2.35,5.85c0,2.3-0.78,4.25-2.35,5.85
		c-1.56,1.6-3.55,2.39-5.97,2.39C450.12,544.48,448.12,543.69,446.57,542.1z M435.24,524.61v-2.36h2.65v2.36H435.24z M435.24,544.02
		v-15.55h2.65v15.55H435.24z M419.04,542.07c-1.62-1.61-2.44-3.55-2.44-5.83c0-2.28,0.82-4.22,2.44-5.83
		c1.63-1.61,3.57-2.41,5.83-2.41c1.39,0,2.79,0.16,4.21,0.47v2.36c-1.41-0.31-2.81-0.47-4.21-0.47c-1.58,0-2.91,0.58-4,1.72
		c-1.08,1.15-1.62,2.54-1.62,4.16c0,1.62,0.54,3.01,1.63,4.16c1.09,1.15,2.42,1.72,3.99,1.72c1.39,0,2.79-0.16,4.21-0.47v2.36
		c-1.41,0.31-2.81,0.47-4.21,0.47C422.6,544.48,420.66,543.68,419.04,542.07z M400.67,524.82l3.04-4.13h3.41l-3.65,4.13H400.67z
		 M399.62,532.06c-1.03,1.13-1.55,2.52-1.55,4.18c0,1.66,0.52,3.05,1.55,4.18c1.03,1.13,2.41,1.69,4.12,1.69
		c1.69,0,3.06-0.57,4.11-1.69c1.04-1.13,1.56-2.53,1.56-4.18c0-1.66-0.52-3.05-1.56-4.18c-1.05-1.13-2.42-1.7-4.11-1.7
		C402.03,530.36,400.65,530.93,399.62,532.06z M397.75,542.1c-1.55-1.59-2.33-3.54-2.33-5.86c0-2.32,0.78-4.27,2.33-5.86
		c1.55-1.58,3.55-2.38,5.99-2.38c2.41,0,4.4,0.8,5.97,2.4c1.57,1.6,2.35,3.55,2.35,5.85c0,2.3-0.79,4.25-2.36,5.85
		c-1.58,1.6-3.56,2.39-5.96,2.39C401.3,544.48,399.31,543.69,397.75,542.1z"/>
	<polygon class="st2" points="504.19,339.12 504.19,372.12 486.18,360.56 486.18,288.1 504.19,288.1 504.19,321.12 546.24,321.12 
		546.24,288.1 564.25,288.1 564.25,372.18 546.24,372.18 546.24,339.12 	"/>
	<path class="st2" d="M458.43,342.3l15.14,9.89c-1.72,2.7-3.82,5.24-6.23,7.65c-8.2,8.2-18.07,12.34-29.71,12.34
		c-11.61,0-21.53-4.1-29.73-12.3c-8.2-8.2-12.3-18.12-12.3-29.73c0-11.64,4.1-21.53,12.3-29.73c8.2-8.2,18.12-12.32,29.73-12.32
		c11.64,0,21.53,4.12,29.71,12.34c2.67,2.62,4.91,5.44,6.72,8.46l-15.63,9.1c-0.99-1.72-2.27-3.33-3.81-4.85
		c-4.69-4.69-10.36-7.03-16.99-7.03c-6.63,0-12.27,2.33-16.97,7.03c-4.7,4.7-7.05,10.36-7.05,16.99c0,6.63,2.36,12.28,7.05,16.97
		c4.69,4.69,10.34,7.05,16.97,7.05c6.63,0,12.3-2.36,16.99-7.05C456.16,345.62,457.44,344.01,458.43,342.3"/>
	<path class="st1" d="M65.62,340.95l15.81,10.31c-1.79,2.85-3.95,5.53-6.48,8.06c-8.57,8.58-18.92,12.87-31.04,12.87
		c-12.14,0-22.48-4.28-31.04-12.87C4.28,350.75,0,340.41,0,328.27c0-12.12,4.28-22.48,12.87-31.04c8.56-8.56,18.9-12.87,31.04-12.87
		c12.12,0,22.48,4.3,31.04,12.87c2.76,2.76,5.07,5.72,6.96,8.84l-16.29,9.53c-1.05-1.8-2.38-3.49-3.96-5.07
		c-4.9-4.88-10.81-7.34-17.75-7.34c-6.94,0-12.87,2.46-17.75,7.34c-4.9,4.9-7.34,10.81-7.34,17.75c0,6.94,2.44,12.87,7.34,17.75
		c4.88,4.9,10.81,7.34,17.75,7.34c6.94,0,12.85-2.44,17.75-7.34C63.24,344.44,64.57,342.75,65.62,340.95"/>
	<path class="st4" d="M743.84,351.91v-0.21l14.8-15.4c4.15-4.31,7.35-8.28,9.64-11.85c1.05-1.66,1.94-3.26,2.68-4.8
		c2.3,4.38,5.35,8.46,9.14,12.24l0.01,0.01c4.83,4.85,10.16,8.47,15.99,10.89l0,0c5.8,2.4,12.14,3.6,19.02,3.6
		c6.86,0,13.21-1.2,19.02-3.61c5.82-2.42,11.16-6.04,15.99-10.88v-0.01c4.84-4.84,8.48-10.18,10.89-15.99
		c2.41-5.81,3.62-12.15,3.62-19.02c0-3.43-0.3-6.74-0.91-9.91l-19.33,12.06c-0.47,7.19-3.32,13.41-8.52,18.61
		c-2.84,2.84-6.01,4.99-9.5,6.43c-3.48,1.44-7.23,2.16-11.26,2.16c-4.03,0-7.79-0.72-11.28-2.16c-3.47-1.44-6.63-3.58-9.47-6.43
		l-0.01-0.01c-2.85-2.84-4.99-6-6.43-9.47c-1.44-3.49-2.16-7.25-2.16-11.28c0-4.02,0.72-7.78,2.16-11.26
		c1.44-3.47,3.58-6.64,6.44-9.5l-0.01-0.01c2.83-2.83,6-4.98,9.5-6.43c3.48-1.44,7.24-2.16,11.26-2.16c4.03,0,7.79,0.73,11.27,2.17
		c2.29,0.95,4.44,2.2,6.46,3.77l13.19-15.29c-3.72-3.04-7.69-5.44-11.92-7.19c-5.81-2.41-12.15-3.61-19-3.61
		c-6.87,0-13.21,1.21-19.02,3.62c-5.81,2.41-11.14,6.05-15.99,10.89h-0.01c-4.85,4.84-8.48,10.16-10.88,15.97v0.01
		c-1,2.42-1.79,4.92-2.38,7.52c-1.4-1.48-2.91-2.76-4.57-3.88c-1.77-1.2-3.69-2.21-5.72-3.04c-2.03-0.83-4.15-1.45-6.38-1.89
		c-2.21-0.44-4.47-0.65-6.78-0.65c-3.97,0-7.68,0.46-11.13,1.38c-3.48,0.92-6.52,2.24-9.15,3.92c-2.65,1.68-4.96,3.57-6.94,5.67
		c-1.31,1.39-2.52,2.88-3.61,4.47c-3.4,4.69-5.37,10.25-5.37,17.62c6.34,0,12.81,0,19.15,0c0.21-2.62,1.61-5.65,5.49-9.03
		c2.9-2.28,6.12-3.43,9.68-3.43c2.93,0,5.33,0.97,7.19,2.9c1.87,1.94,2.81,4.38,2.81,7.35c0,3.16-0.97,6.29-2.86,9.43
		c-1.89,3.11-4.84,6.85-8.9,11.18l-28.1,30.24l0.28,14.52h63.14v-20.26H743.84z"/>
	<path class="st4" d="M850.47,372.18c0.65,0,1.29-0.07,1.92-0.21c0.63-0.14,1.24-0.36,1.83-0.67c0.59-0.31,1.12-0.69,1.57-1.14
		c0.45-0.45,0.81-1.01,1.08-1.68c0.28-0.67,0.41-1.42,0.41-2.23c0-0.79-0.13-1.49-0.37-2.09c-0.4-0.96-1.2-1.77-2.4-2.42
		c-0.52-0.28-1.59-0.74-3.2-1.36c-0.5-0.2-0.9-0.36-1.2-0.48c-0.29-0.13-0.59-0.27-0.89-0.44c-0.3-0.16-0.52-0.32-0.67-0.48
		c-0.15-0.15-0.27-0.32-0.36-0.52c-0.09-0.19-0.13-0.41-0.13-0.65c0.01-0.6,0.23-1.07,0.66-1.41c0.43-0.34,0.98-0.52,1.66-0.52
		c1.26,0,2.65,0.63,4.2,1.89l2.2-2.87c-1.99-1.65-4.16-2.45-6.49-2.43c-1.14,0.02-2.18,0.27-3.13,0.75
		c-0.94,0.48-1.69,1.14-2.24,1.98c-0.55,0.84-0.82,1.77-0.82,2.78c0,0.51,0.06,0.98,0.18,1.42c0.12,0.45,0.28,0.84,0.47,1.18
		c0.19,0.34,0.43,0.66,0.74,0.97c0.3,0.3,0.61,0.57,0.92,0.78c0.31,0.22,0.68,0.43,1.1,0.65c0.42,0.22,0.81,0.4,1.17,0.54
		c0.36,0.14,0.78,0.29,1.25,0.46c0.52,0.18,0.94,0.33,1.26,0.46c0.32,0.13,0.62,0.28,0.92,0.44c0.29,0.16,0.52,0.33,0.67,0.5
		c0.15,0.17,0.28,0.36,0.37,0.58c0.09,0.22,0.13,0.47,0.13,0.75c0,0.41-0.1,0.76-0.3,1.06c-0.2,0.3-0.52,0.54-0.94,0.71
		c-0.42,0.18-0.93,0.27-1.53,0.27c-0.39,0-0.79-0.05-1.19-0.14c-0.41-0.1-0.81-0.24-1.23-0.44c-0.41-0.19-0.82-0.44-1.23-0.75
		c-0.41-0.31-0.8-0.66-1.15-1.07l-2.29,2.82c0.99,1.02,2.09,1.77,3.29,2.28C847.95,371.92,849.19,372.18,850.47,372.18
		 M832.43,368.63c-1.13,0-2.15-0.28-3.05-0.85c-0.9-0.57-1.6-1.32-2.09-2.28c-0.49-0.96-0.73-2.02-0.73-3.19
		c0-1.16,0.24-2.21,0.73-3.17c0.49-0.96,1.19-1.72,2.09-2.28c0.9-0.56,1.92-0.84,3.05-0.84c1.09,0,2.08,0.27,2.97,0.8
		c0.89,0.54,1.59,1.29,2.09,2.25c0.51,0.96,0.76,2.04,0.76,3.23c0,0.89-0.15,1.73-0.44,2.52c-0.3,0.79-0.71,1.45-1.22,2.01
		c-0.51,0.56-1.13,0.99-1.85,1.31C834.02,368.47,833.25,368.63,832.43,368.63z M832.42,372.18c1.4,0,2.71-0.24,3.92-0.72
		c1.2-0.48,2.24-1.15,3.1-2c0.86-0.85,1.54-1.89,2.04-3.13c0.49-1.23,0.74-2.57,0.74-4.02c0-1.45-0.25-2.78-0.74-4.01
		c-0.5-1.23-1.17-2.26-2.04-3.11c-0.87-0.85-1.9-1.52-3.1-2c-1.21-0.48-2.51-0.72-3.92-0.72c-1.43,0-2.76,0.25-3.99,0.75
		c-1.23,0.49-2.27,1.17-3.12,2.04c-0.85,0.86-1.52,1.91-2,3.12c-0.48,1.22-0.72,2.54-0.72,3.95c0,1.42,0.24,2.73,0.72,3.96
		c0.48,1.22,1.15,2.26,2,3.13c0.85,0.86,1.89,1.54,3.11,2.04C829.64,371.93,830.97,372.18,832.42,372.18z M816.31,352.68v13.02
		h-0.05l-8.57-13.02h-3.8v19.27h3.8v-12.76h0.05l8.48,12.76h3.91v-19.27H816.31z M790.71,364.84l2.57-7.56h0.03l2.58,7.56H790.71z
		 M798.31,371.95h3.99l-7.17-19.27h-3.68l-7.14,19.27h3.99l1.31-3.86H797L798.31,371.95z"/>
	<path class="st5" d="M659.73,387.48c67.45-59.3,84.48-72.85,12.34-62.57C714.89,331.15,710.07,332.75,659.73,387.48"/>
	<path class="st6" d="M810.2,310.03c103.12-76.96,115.14-81.03,13.32-75.76C884.27,250.42,884.91,239.6,810.2,310.03"/>
	<path class="st1" d="M874.37,279.3c134.07-94.45,54.3-67.15-19.99-59.52C897.76,219.59,953.99,211.61,874.37,279.3"/>
	<line class="st7" x1="625.46" y1="237.88" x2="625.46" y2="507.84"/>
	<line class="st7" x1="625.21" y1="237.56" x2="625.21" y2="507.74"/>
</g>
</svg>
